# xmcd
#
# Track frame offsets: 
#        150
#        12227
#        22424
#        35852
#        43439
#        61081
#        69686
#        81395
#        90557
#        103795
#        119033
#        128976
#
# Disc length: 1942 seconds
#
# Revision: 0
# Processed by: cddbd v1.5.2PL0 Copyright (c) Steve Scherf et al.
# Submitted via: ExactAudioCopy v0.99pb5
#
DISCID=b607940c
DTITLE=Vic Anderson - Plain and Unvarnished
DYEAR=2002
DGENRE=Country
TTITLE0=Vic Anderson - Dawn
TTITLE1=Vic Anderson - Another Spring
TTITLE2=Vic Anderson - Fair Haired Sam
TTITLE3=Vic Anderson - Tumbling Tumbleweeds
TTITLE4=Vic Anderson - Just Dreanin'
TTITLE5=Vic Anderson - Salute To Cowboy Yodelers
TTITLE6=Vic Anderson - Ride Easy, Pard
TTITLE7=Vic Anderson - Back In The Saddle Again
TTITLE8=Vic Anderson - I'll Miss You, Old Pard
TTITLE9=Vic Anderson - Dreamin' Mid The Pines
TTITLE10=Vic Anderson - Blue Shadows
TTITLE11=Vic Anderson - Evening By The Spring
EXTD=
EXTT0=
EXTT1=
EXTT2=
EXTT3=
EXTT4=
EXTT5=
EXTT6=
EXTT7=
EXTT8=
EXTT9=
EXTT10=
EXTT11=
PLAYORDER=
